<svg xmlns="http://www.w3.org/2000/svg" viewBox="0 0 140 22" fill="none" preserveAspectRatio="xMidYMid meet">
<path d="M32.4565 6.06809C30.6042 6.06809 29.2016 7.00746 28.3021 8.29983V1H22.0891L20.1047 8.90598C19.5224 11.3285 18.9135 13.9192 18.3844 16.3981C17.9094 13.9192 17.3784 11.3295 16.7966 8.87829L14.8645 1H11.1864L9.25472 8.87829C8.69854 11.3295 8.14331 13.8915 7.63985 16.3709C7.13687 13.8915 6.49995 11.328 5.91955 8.90547L3.96176 1H0.230469L5.46976 20.6129H9.46608L11.4771 12.4592C12.0332 10.2003 12.5623 7.83114 13.0121 5.51783C13.4624 7.83114 14.0176 10.2003 14.5472 12.4592L16.5582 20.6129H20.5806L24.9674 4.10879V20.6129H28.3021V12.653C28.3021 10.1187 29.8894 9.07209 31.3451 9.07209C33.0388 9.07209 33.9099 9.95361 33.9099 11.7715V20.6139H37.2446V11.1931C37.2465 7.80345 35.3148 6.06809 32.4565 6.06809ZM44.9518 6.06809C40.9027 6.06809 38.2035 9.04342 38.2035 13.5059C38.2035 18.0514 40.9821 20.9437 45.0045 20.9437C48.286 20.9437 50.6679 19.0981 51.3557 16.2058H48.154C47.651 17.4725 46.6189 18.2437 45.0311 18.2437C43.0994 18.2437 41.723 17.1145 41.4851 14.5802H51.7V13.7555C51.7 9.23623 49.1329 6.06809 44.9518 6.06809ZM41.5112 12.1562C41.8289 9.81517 43.1522 8.76852 44.9252 8.76852C46.9096 8.76852 48.1008 10.1454 48.3653 12.1562H41.5112ZM59.4647 6.06809C55.4156 6.06809 52.7164 9.04342 52.7164 13.5059C52.7164 18.0514 55.495 20.9437 59.5174 20.9437C62.7989 20.9437 65.1808 19.0981 65.8681 16.2058H62.6669C62.1634 17.4725 61.1318 18.2437 59.544 18.2437C57.6123 18.2437 56.2359 17.1145 55.9979 14.5802H66.2124V13.7555C66.2115 9.23623 63.6458 6.06809 59.4647 6.06809ZM56.0241 12.1562C56.3418 9.81517 57.6651 8.76852 59.4381 8.76852C61.4225 8.76852 62.6137 10.1454 62.8782 12.1562H56.0241ZM67.2279 20.6129H70.5626V1H67.2279V20.6129ZM79.2729 6.06809C77.4206 6.06809 76.0185 7.00746 75.1189 8.29983V1H71.7832V20.6129H75.1179V12.653C75.1179 10.1187 76.7053 9.07209 78.161 9.07209C79.8542 9.07209 80.7258 9.95361 80.7258 11.7715V20.6139H84.0605V11.1931C84.0624 7.80345 82.1307 6.06809 79.2719 6.06809H79.2729ZM91.98 6.06809C87.825 6.06809 85.0204 8.98854 85.0204 13.5059C85.0204 18.0232 87.825 20.9437 91.98 20.9437C96.1349 20.9437 98.9144 18.0237 98.9144 13.5059C98.9144 8.98805 96.134 6.06809 91.979 6.06809H91.98ZM91.98 18.0786C89.8104 18.0786 88.4339 16.5084 88.4339 13.5059C88.4339 10.5034 89.8113 8.93367 91.98 8.93367C94.124 8.93367 95.526 10.5039 95.526 13.5059C95.526 16.5079 94.1254 18.0786 91.979 18.0786H91.98ZM108.815 14.3602C108.815 16.8945 107.227 17.9412 105.772 17.9412C104.052 17.9412 103.205 17.0596 103.205 15.2417V6.39887H99.8724V15.8202C99.8724 19.2078 101.804 20.9437 104.635 20.9437C106.594 20.9437 108.023 19.9242 108.922 18.5473V20.6129H112.152V6.39887H108.818L108.815 14.3602ZM120.591 12.211L118.871 11.9357C117.389 11.6608 116.595 11.247 116.595 10.2003C116.595 9.18134 117.363 8.54754 118.977 8.54754C120.697 8.54754 121.782 9.0711 121.862 10.889H125.011C124.905 7.96957 123.185 6.06809 118.979 6.06809C115.326 6.06809 113.315 7.69371 113.315 10.3654C113.315 12.788 114.85 14.1397 117.787 14.6628L119.349 14.9387C121.413 15.2966 122.022 15.7925 122.022 16.8119C122.022 17.8863 121.254 18.5196 119.323 18.5196C117.338 18.5196 116.465 17.8863 116.279 16.097H113.022C113.233 19.5405 115.376 21 119.266 21C123.077 21 125.326 19.4026 125.326 16.5375C125.326 14.0848 123.871 12.8162 120.59 12.211H120.591ZM139.23 13.7555C139.23 9.23771 136.663 6.06959 132.482 6.06959C128.433 6.06959 125.734 9.04489 125.734 13.5074C125.734 18.0529 128.513 20.9451 132.535 20.9451C135.816 20.9451 138.198 19.0995 138.886 16.2073H135.684C135.181 17.4739 134.149 18.2452 132.562 18.2452C130.63 18.2452 129.253 17.116 129.015 14.5817H139.23V13.7555ZM129.042 12.1577C129.359 9.81666 130.683 8.77002 132.456 8.77002C134.44 8.77002 135.631 10.1469 135.896 12.1577H129.042Z" fill="#F2F0EA"/>
</svg>